<?xml version="1.0" standalone="no"?>
<!DOCTYPE svg PUBLIC "-//W3C//DTD SVG 20010904//EN"
 "http://www.w3.org/TR/2001/REC-SVG-20010904/DTD/svg10.dtd">
<svg version="1.0" xmlns="http://www.w3.org/2000/svg"
 width="148.000000pt" height="148.000000pt" viewBox="0 0 148.000000 148.000000"
 preserveAspectRatio="xMidYMid meet">
<metadata>
Created by potrace 1.11, written by Peter Selinger 2001-2013
</metadata>
<g transform="translate(0.000000,148.000000) scale(0.100000,-0.100000)"
fill="#000000" stroke="none">
<path d="M545 1200 c-3 -5 -3 -10 1 -10 4 0 -1 -6 -11 -14 -22 -16 -39 -11
-29 7 4 7 3 8 -2 4 -5 -5 -10 -13 -10 -18 -1 -5 -2 -14 -3 -20 0 -5 -5 -8 -10
-5 -5 3 -11 -4 -14 -15 -3 -12 -10 -18 -16 -14 -7 3 -8 0 -5 -10 4 -8 2 -21
-3 -28 -5 -6 -8 -22 -7 -35 1 -15 -4 -21 -15 -20 -11 2 -15 -4 -14 -20 2 -13
-1 -21 -7 -17 -6 3 -10 1 -10 -5 0 -7 7 -10 15 -6 9 3 15 0 15 -9 0 -22 -17
-27 -35 -9 -9 9 -18 14 -21 11 -3 -3 -19 -1 -35 3 -20 6 -29 5 -29 -3 0 -7 -4
-6 -10 3 -7 12 -10 12 -10 1 0 -7 -6 -11 -15 -7 -8 3 -21 -2 -30 -10 -8 -8
-20 -12 -26 -8 -7 4 -9 3 -5 -4 3 -6 -2 -17 -12 -24 -25 -17 -44 -78 -41 -130
2 -31 -1 -42 -10 -40 -7 1 -10 -2 -6 -7 3 -6 11 -8 18 -6 13 5 40 -43 31 -56
-3 -5 2 -9 10 -9 10 0 16 -9 16 -22 0 -17 3 -19 9 -9 6 10 12 5 22 -17 7 -17
16 -29 20 -26 12 7 41 -27 35 -42 -3 -7 0 -16 6 -20 7 -5 8 -2 3 5 -5 9 -2 12
11 9 11 -2 18 -11 18 -21 -1 -9 2 -14 7 -11 5 3 9 0 9 -5 0 -6 -5 -11 -12 -11
-6 0 -8 -3 -5 -6 4 -4 13 -2 21 5 11 9 15 8 20 -4 3 -9 2 -13 -3 -10 -5 3 -13
1 -16 -5 -4 -6 -3 -10 2 -9 27 5 34 -5 48 -66 16 -67 12 -81 -18 -76 -5 1 -6
-3 -2 -9 3 -6 11 -8 16 -5 5 4 9 -8 9 -25 0 -22 -4 -29 -12 -24 -10 6 -10 4 0
-7 13 -14 17 -63 4 -55 -5 3 -9 -1 -9 -9 0 -8 4 -12 9 -9 4 3 8 -2 8 -11 0 -9
-4 -14 -8 -11 -5 3 -9 -1 -9 -9 0 -8 4 -12 9 -9 4 3 8 0 8 -5 0 -8 104 -11
329 -11 289 0 330 2 335 16 3 8 10 13 15 9 5 -3 12 -1 16 4 3 6 -3 8 -13 6
-15 -3 -19 3 -20 33 -1 19 4 42 11 51 9 11 9 13 0 8 -6 -4 -14 -3 -18 3 -3 5
-3 10 2 10 4 0 7 25 7 55 -2 63 16 123 42 142 10 7 15 13 11 13 -4 0 1 8 11
18 9 11 20 17 25 15 4 -2 7 2 7 10 0 8 8 21 18 28 15 12 16 12 7 -1 -5 -9 -2
-7 9 5 10 11 22 20 26 20 5 0 12 4 17 9 5 5 3 6 -4 2 -16 -9 -18 10 -3 19 6 4
19 1 28 -7 15 -11 15 -11 5 2 -14 18 -1 46 16 36 6 -4 9 -2 6 7 -6 14 28 100
37 92 2 -3 3 9 0 25 -3 21 0 30 9 30 9 0 10 3 4 8 -5 4 -18 25 -28 47 -10 21
-28 46 -39 53 -10 8 -17 20 -14 28 4 12 2 12 -14 4 -16 -8 -22 -8 -26 3 -3 9
-13 13 -26 9 -11 -3 -24 1 -29 9 -5 8 -9 9 -9 3 0 -19 -49 -23 -61 -5 -8 13
-9 11 -3 -8 4 -16 3 -21 -5 -17 -6 4 -11 1 -11 -6 0 -10 -3 -9 -9 1 -6 9 -6
22 1 34 7 15 5 24 -10 40 -16 17 -18 26 -10 41 7 13 7 17 0 12 -6 -4 -16 3
-22 15 -9 16 -9 20 0 14 9 -6 9 -2 1 14 -7 11 -14 21 -17 21 -3 0 -2 -6 1 -12
4 -7 -7 1 -23 19 -17 17 -33 29 -36 26 -3 -4 -6 2 -7 13 0 10 -3 13 -6 7 -3
-9 -10 -10 -24 -3 -14 8 -19 7 -19 -2 0 -10 -3 -9 -9 1 -7 11 -13 12 -23 3
-11 -9 -18 -9 -28 1 -10 9 -11 9 -6 0 8 -15 -10 -18 -19 -3 -3 6 -12 10 -18
10 -7 0 -4 -5 6 -11 9 -6 15 -15 12 -20 -4 -5 -11 -7 -16 -3 -5 3 -8 0 -7 -8
2 -7 -3 -12 -10 -10 -8 1 -12 -3 -9 -10 4 -13 -19 -68 -29 -68 -2 0 0 9 6 20
6 11 7 20 3 20 -4 0 -1 5 7 10 12 7 12 10 1 10 -7 0 -11 6 -8 13 3 8 0 14 -7
14 -6 0 -12 -8 -12 -18 0 -10 3 -16 7 -13 4 2 5 -6 1 -18 -5 -21 -6 -21 -12
-2 -4 10 -6 22 -3 27 2 4 -3 7 -12 7 -9 0 -13 5 -10 10 3 6 1 10 -5 10 -6 0
-10 8 -8 17 2 10 -1 18 -7 18 -5 0 -14 3 -20 6 -5 4 -26 10 -45 14 -19 4 -38
13 -42 19 -5 7 -8 4 -8 -7 0 -10 -5 -15 -10 -12 -6 4 -8 11 -5 16 4 5 4 9 1 9
-3 0 -8 -4 -11 -10z m-115 -201 c0 -6 -4 -7 -10 -4 -5 3 -10 11 -10 16 0 6 5
7 10 4 6 -3 10 -11 10 -16z m632 -41 c-9 -9 -12 -7 -12 12 0 19 3 21 12 12 9
-9 9 -15 0 -24z"/>
<path d="M365 1000 c-3 -5 -1 -10 4 -10 6 0 11 5 11 10 0 6 -2 10 -4 10 -3 0
-8 -4 -11 -10z"/>
<path d="M1090 980 c0 -5 5 -10 11 -10 5 0 7 5 4 10 -3 6 -8 10 -11 10 -2 0
-4 -4 -4 -10z"/>
<path d="M1119 953 c-13 -16 -12 -17 4 -4 9 7 17 15 17 17 0 8 -8 3 -21 -13z"/>
<path d="M173 935 c0 -8 4 -12 9 -9 5 3 6 10 3 15 -9 13 -12 11 -12 -6z"/>
<path d="M1291 907 c2 -1 13 -9 24 -17 19 -14 19 -14 6 3 -7 9 -18 17 -24 17
-6 0 -8 -1 -6 -3z"/>
<path d="M1320 706 c0 -2 7 -7 16 -10 8 -3 12 -2 9 4 -6 10 -25 14 -25 6z"/>
<path d="M273 565 c0 -8 4 -12 9 -9 5 3 6 10 3 15 -9 13 -12 11 -12 -6z"/>
<path d="M1105 450 c-3 -6 1 -7 9 -4 18 7 21 14 7 14 -6 0 -13 -4 -16 -10z"/>
<path d="M353 425 c0 -8 4 -12 9 -9 5 3 6 10 3 15 -9 13 -12 11 -12 -6z"/>
</g>
</svg>
